<svg width="12" height="14" viewBox="0 0 12 14" fill="none" xmlns="http://www.w3.org/2000/svg">
<path d="M0 13.6667V12.6667H1.66667V12.1667H0.666667V11.1667H1.66667V10.6667H0V9.66671H2.66667V11.1667L2.16667 11.6667L2.66667 12.1667V13.6667H0ZM0 9.00004V6.50004H1.66667V6.00004H0V5.00004H2.66667V7.50004H1V8.00004H2.66667V9.00004H0ZM1 4.33337V1.33337H0V0.333374H2V4.33337H1ZM4.15 11.5167V10.5167H12V11.5167H4.15ZM4.15 7.46671V6.46671H12V7.46671H4.15ZM4.15 3.41671V2.41671H12V3.41671H4.15Z" fill="#777D96"/>
</svg>
