<svg width="10" height="12" viewBox="0 0 10 12" fill="none" xmlns="http://www.w3.org/2000/svg">
<path d="M0.333252 11.6667V10.6667H9.66659V11.6667H0.333252ZM4.99992 9.33333C3.88881 9.33333 3.01936 9.00833 2.39159 8.35833C1.76381 7.70833 1.44992 6.82778 1.44992 5.71667V0H2.83325V5.71667C2.83325 6.41667 3.02214 6.97778 3.39992 7.4C3.7777 7.82222 4.31103 8.03333 4.99992 8.03333C5.68881 8.03333 6.22214 7.82222 6.59992 7.4C6.9777 6.97778 7.16659 6.41667 7.16659 5.71667V0H8.54992V5.71667C8.54992 6.82778 8.23603 7.70833 7.60825 8.35833C6.98047 9.00833 6.11103 9.33333 4.99992 9.33333Z" fill="#777D96"/>
</svg>
