<svg width="12" height="12" viewBox="0 0 12 12" fill="none" xmlns="http://www.w3.org/2000/svg">
<path d="M4.28327 10.7V9.69996H11.9999V10.7H4.28327ZM4.28327 6.49996V5.49996H11.9999V6.49996H4.28327ZM4.28327 2.28329V1.28329H11.9999V2.28329H4.28327ZM1.14993 11.3166C0.838268 11.3166 0.571463 11.2111 0.349518 11C0.127574 10.7888 0.0166016 10.525 0.0166016 10.2083C0.0166016 9.89163 0.124935 9.62496 0.341602 9.40829C0.558268 9.19163 0.824935 9.08329 1.1416 9.08329C1.45827 9.08329 1.72216 9.19426 1.93327 9.41621C2.14438 9.63815 2.24994 9.90496 2.24994 10.2166C2.24994 10.5191 2.14223 10.7781 1.92682 10.9935C1.7114 11.2089 1.45243 11.3166 1.14993 11.3166ZM1.14993 7.11663C0.838268 7.11663 0.571463 7.00729 0.349518 6.78861C0.127574 6.56993 0.0166016 6.30705 0.0166016 5.99996C0.0166016 5.69287 0.127574 5.42999 0.349518 5.21131C0.571463 4.99263 0.838268 4.88329 1.14993 4.88329C1.45243 4.88329 1.7114 4.99263 1.92682 5.21131C2.14223 5.42999 2.24994 5.69287 2.24994 5.99996C2.24994 6.30705 2.14223 6.56993 1.92682 6.78861C1.7114 7.00729 1.45243 7.11663 1.14993 7.11663ZM1.13327 2.89996C0.82619 2.89996 0.563307 2.79062 0.344618 2.57194C0.12594 2.35326 0.0166016 2.09038 0.0166016 1.78329C0.0166016 1.4762 0.12594 1.21332 0.344618 0.994643C0.563307 0.775965 0.82619 0.666626 1.13327 0.666626C1.44035 0.666626 1.70323 0.775965 1.92192 0.994643C2.1406 1.21332 2.24994 1.4762 2.24994 1.78329C2.24994 2.09038 2.1406 2.35326 1.92192 2.57194C1.70323 2.79062 1.44035 2.89996 1.13327 2.89996Z" fill="#777D96"/>
</svg>
