<svg width="32" height="32" viewBox="0 0 32 32" fill="none" xmlns="http://www.w3.org/2000/svg">
<circle cx="16" cy="16" r="16" fill="#F7F9FF"/>
<g clip-path="url(#clip0_719_6578)">
<path d="M25.931 14.608L16.6757 5.35273C15.9286 4.60564 14.7174 4.60564 13.9703 5.35273L4.71498 14.608C3.96789 15.3551 3.96789 16.5664 4.71498 17.3135L13.9703 26.5688C14.7174 27.3158 15.9286 27.3158 16.6757 26.5688L25.931 17.3135C26.6781 16.5664 26.6781 15.3551 25.931 14.608Z" fill="#3D4EA8"/>
<path d="M26.4927 10.0869H4.23184C3.3674 10.0869 2.66663 10.7877 2.66663 11.6521V20.3478C2.66663 21.2122 3.3674 21.913 4.23184 21.913H26.4927C27.3572 21.913 28.0579 21.2122 28.0579 20.3478V11.6521C28.0579 10.7877 27.3572 10.0869 26.4927 10.0869Z" fill="url(#paint0_linear_719_6578)"/>
<path d="M7.17306 13.0435H8.98453C9.18488 13.0435 9.3101 13.1353 9.36019 13.3189L11.2218 18.6448C11.2273 18.6615 11.2301 18.6894 11.2301 18.7283C11.2301 18.7617 11.2106 18.7979 11.1717 18.8368C11.1383 18.8702 11.0965 18.8869 11.0464 18.8869H9.5021C9.33514 18.8869 9.22662 18.8174 9.17653 18.6782L8.97619 18.1273H7.1814L6.98106 18.6782C6.93097 18.8174 6.82245 18.8869 6.65549 18.8869H5.11114C5.06106 18.8869 5.01653 18.8702 4.97758 18.8368C4.94419 18.7979 4.92749 18.7617 4.92749 18.7283C4.92749 18.6894 4.93027 18.6615 4.93584 18.6448L6.7974 13.3189C6.84749 13.1353 6.97271 13.0435 7.17306 13.0435ZM7.60714 16.4995H8.55045L8.07462 14.9468L7.60714 16.4995Z" fill="white"/>
<path d="M13.3267 18.8869H11.6237C11.5625 18.8869 11.5096 18.8647 11.4651 18.8202C11.4206 18.7756 11.3983 18.7228 11.3983 18.6615V13.2688C11.3983 13.2076 11.4206 13.1548 11.4651 13.1102C11.5096 13.0657 11.5625 13.0435 11.6237 13.0435H13.3267C13.3879 13.0435 13.4408 13.0657 13.4853 13.1102C13.5298 13.1548 13.5521 13.2076 13.5521 13.2688V18.6615C13.5521 18.7228 13.5298 18.7756 13.4853 18.8202C13.4408 18.8647 13.3879 18.8869 13.3267 18.8869Z" fill="white"/>
<path d="M14.3593 13.0435H16.7635C17.576 13.0435 18.2438 13.2466 18.767 13.6528C19.2957 14.0535 19.56 14.6156 19.56 15.3391V16.5829C19.56 17.3398 19.304 17.913 18.792 18.3026C18.28 18.6922 17.6066 18.8869 16.7718 18.8869H14.3593C14.2981 18.8869 14.2452 18.8647 14.2007 18.8202C14.1562 18.7756 14.1339 18.7228 14.1339 18.6615V13.2688C14.1339 13.2076 14.1562 13.1548 14.2007 13.1102C14.2452 13.0657 14.2981 13.0435 14.3593 13.0435ZM16.2209 14.6713V17.2591H16.7635C16.9527 17.2591 17.103 17.2035 17.2143 17.0922C17.3311 16.9753 17.3896 16.8055 17.3896 16.5829V15.3391C17.3896 14.8939 17.1809 14.6713 16.7635 14.6713H16.2209Z" fill="white"/>
<path d="M21.8036 13.0435H23.6151C23.8154 13.0435 23.9407 13.1353 23.9907 13.3189L25.8523 18.6448C25.8579 18.6615 25.8607 18.6894 25.8607 18.7283C25.8607 18.7617 25.8412 18.7979 25.8022 18.8368C25.7688 18.8702 25.7271 18.8869 25.677 18.8869H24.1327C23.9657 18.8869 23.8572 18.8174 23.8071 18.6782L23.6067 18.1273H21.812L21.6116 18.6782C21.5615 18.8174 21.453 18.8869 21.2861 18.8869H19.7416C19.6915 18.8869 19.647 18.8702 19.6081 18.8368C19.5747 18.7979 19.558 18.7617 19.558 18.7283C19.558 18.6894 19.5608 18.6615 19.5663 18.6448L21.428 13.3189C21.4781 13.1353 21.6033 13.0435 21.8036 13.0435ZM22.2377 16.4995H23.181L22.7052 14.9468L22.2377 16.4995Z" fill="white"/>
</g>
<defs>
<linearGradient id="paint0_linear_719_6578" x1="2.66663" y1="16" x2="28.0579" y2="16" gradientUnits="userSpaceOnUse">
<stop stop-color="#FE8C00"/>
<stop offset="1" stop-color="#F83600"/>
</linearGradient>
<clipPath id="clip0_719_6578">
<rect width="25.3913" height="24" fill="white" transform="translate(2.66663 4)"/>
</clipPath>
</defs>
</svg>
