<svg width="8" height="10" viewBox="0 0 8 10" fill="none" xmlns="http://www.w3.org/2000/svg">
<path d="M0.583252 9.66671V0.333374H4.38325C5.11659 0.333374 5.7527 0.566707 6.29159 1.03337C6.83047 1.50004 7.09992 2.08893 7.09992 2.80004C7.09992 3.22226 6.98325 3.61115 6.74992 3.96671C6.51659 4.32226 6.20547 4.59449 5.81659 4.78337V4.88337C6.29436 5.03893 6.68047 5.31671 6.97492 5.71671C7.26936 6.11671 7.41659 6.56671 7.41659 7.06671C7.41659 7.82226 7.12492 8.44449 6.54159 8.93337C5.95825 9.42226 5.2777 9.66671 4.49992 9.66671H0.583252ZM2.01659 8.40004H4.41659C4.83881 8.40004 5.20547 8.26115 5.51659 7.98337C5.8277 7.7056 5.98325 7.3556 5.98325 6.93337C5.98325 6.52226 5.8277 6.17782 5.51659 5.90004C5.20547 5.62226 4.83881 5.48337 4.41659 5.48337H2.01659V8.40004ZM2.01659 4.28337H4.28325C4.67214 4.28337 5.00825 4.1556 5.29159 3.90004C5.57492 3.64449 5.71659 3.32226 5.71659 2.93337C5.71659 2.54449 5.57492 2.21949 5.29159 1.95837C5.00825 1.69726 4.67214 1.56671 4.28325 1.56671H2.01659V4.28337Z" fill="#777D96"/>
</svg>
