<svg width="32" height="32" viewBox="0 0 32 32" fill="none" xmlns="http://www.w3.org/2000/svg">
<g clip-path="url(#clip0_719_6196)">
<path d="M16 32C24.8366 32 32 24.8366 32 16C32 7.16344 24.8366 0 16 0C7.16344 0 0 7.16344 0 16C0 24.8366 7.16344 32 16 32Z" fill="#3C5A9A"/>
<path d="M21.2026 4.91113H17.6582C15.5548 4.91113 13.2153 5.79578 13.2153 8.84469C13.2256 9.90704 13.2153 10.9245 13.2153 12.0695H10.782V15.9416H13.2906V27.0888H17.9003V15.8681H20.9428L21.2181 12.0587H17.8208C17.8208 12.0587 17.8284 10.3641 17.8208 9.87195C17.8208 8.66709 19.0745 8.73608 19.15 8.73608C19.7465 8.73608 20.9065 8.73782 21.2043 8.73608V4.91113H21.2026Z" fill="white"/>
</g>
<defs>
<clipPath id="clip0_719_6196">
<rect width="32" height="32" fill="white"/>
</clipPath>
</defs>
</svg>
