<svg width="32" height="32" viewBox="0 0 32 32" fill="none" xmlns="http://www.w3.org/2000/svg">
<g clip-path="url(#clip0_719_3763)">
<path d="M26.3564 24.51H5.77913C5.38931 24.51 5.01546 24.3551 4.73982 24.0795C4.46418 23.8038 4.30933 23.43 4.30933 23.0402V8.34212C4.30933 7.9523 4.46418 7.57845 4.73982 7.30281C5.01546 7.02717 5.38931 6.87231 5.77913 6.87231H26.3564C26.7462 6.87231 27.1201 7.02717 27.3957 7.30281C27.6713 7.57845 27.8262 7.9523 27.8262 8.34212V23.0402C27.8262 23.43 27.6713 23.8038 27.3957 24.0795C27.1201 24.3551 26.7462 24.51 26.3564 24.51Z" fill="#EAEAEA"/>
<path d="M7.24893 24.51H5.77913C5.38931 24.51 5.01546 24.3551 4.73982 24.0795C4.46418 23.8038 4.30933 23.43 4.30933 23.0402V8.34212C4.30933 8.1491 4.34734 7.95797 4.42121 7.77965C4.49507 7.60132 4.60334 7.43929 4.73982 7.30281C4.87631 7.16633 5.03834 7.05806 5.21666 6.9842C5.39499 6.91033 5.58611 6.87231 5.77913 6.87231C5.97215 6.87231 6.16328 6.91033 6.3416 6.9842C6.51992 7.05806 6.68195 7.16633 6.81844 7.30281C6.95492 7.43929 7.06319 7.60132 7.13705 7.77965C7.21092 7.95797 7.24893 8.1491 7.24893 8.34212V24.51Z" fill="#D54C3F"/>
<path d="M24.8866 24.51H26.3564C26.7462 24.51 27.1201 24.3551 27.3957 24.0795C27.6713 23.8038 27.8262 23.43 27.8262 23.0402V8.34212C27.8262 7.9523 27.6713 7.57845 27.3957 7.30281C27.1201 7.02717 26.7462 6.87231 26.3564 6.87231C25.9666 6.87231 25.5927 7.02717 25.3171 7.30281C25.0415 7.57845 24.8866 7.9523 24.8866 8.34212V24.51Z" fill="#B63524"/>
<path d="M27.1981 9.54737C27.3564 9.43684 27.4913 9.29621 27.5953 9.13352C27.6992 8.97083 27.7701 8.78927 27.8038 8.59919C27.8376 8.40911 27.8336 8.21425 27.792 8.02572C27.7505 7.8372 27.6722 7.6587 27.5616 7.50043C27.4511 7.34215 27.3105 7.2072 27.1478 7.10327C26.9851 6.99935 26.8035 6.92848 26.6135 6.89473C26.4234 6.86097 26.2285 6.86498 26.04 6.90653C25.8515 6.94808 25.673 7.02636 25.5147 7.1369L16.0688 14.0141L16.0678 14.0146L16.0668 14.0141L6.62086 7.1369C6.30121 6.91366 5.90597 6.82655 5.52209 6.89473C5.13821 6.9629 4.79714 7.18078 4.57391 7.50043C4.35067 7.82008 4.26356 8.21531 4.33174 8.59919C4.39991 8.98307 4.61779 9.32414 4.93744 9.54737L4.89824 9.51847L16.0678 17.6509M27.2378 9.51847L16.0678 17.6509L27.2378 9.51847Z" fill="#DE5145"/>
<path d="M26.3563 6.87232C26.0432 6.87232 25.7527 6.9703 25.5146 7.13688L16.0687 14.0141L16.0677 14.0146L16.0667 14.0141L6.62076 7.13688C6.37408 6.96423 6.08015 6.87184 5.77905 6.87232H26.3563Z" fill="#EFEFEF"/>
<path d="M7.24945 11.8637L4.77234 9.41016L4.77136 9.41212C4.8233 9.46111 4.87866 9.50618 4.93745 9.54734L4.89826 9.51843L7.24994 11.2308L7.24945 11.8814" fill="#C64132"/>
<path d="M14.4353 18.9203L7.2489 24.5099L7.24939 11.8025L14.4338 18.9183" fill="#E3E3E3"/>
<path d="M14.4353 18.9202L16.0677 17.6508L7.24939 11.2307V11.8025L14.4338 18.9183L14.4353 18.9202Z" fill="url(#paint0_linear_719_3763)"/>
<path d="M20.0171 24.5099H24.8866V11.2302L16.0678 17.6508L14.4338 18.9183L20.0171 24.5099Z" fill="url(#paint1_linear_719_3763)"/>
</g>
<defs>
<linearGradient id="paint0_linear_719_3763" x1="7.24939" y1="15.0757" x2="16.0677" y2="15.0757" gradientUnits="userSpaceOnUse">
<stop stop-color="#C8C8C8"/>
<stop offset="1" stop-color="#CDCDCD"/>
</linearGradient>
<linearGradient id="paint1_linear_719_3763" x1="14.4338" y1="17.8698" x2="24.8866" y2="17.8698" gradientUnits="userSpaceOnUse">
<stop stop-color="#D9D9D9"/>
<stop offset="1" stop-color="#E2E2E2"/>
</linearGradient>
<clipPath id="clip0_719_3763">
<rect width="32" height="17.8432" fill="white" transform="translate(0 6.66675)"/>
</clipPath>
</defs>
</svg>
