<svg width="32" height="32" viewBox="0 0 32 32" fill="none" xmlns="http://www.w3.org/2000/svg">
<g clip-path="url(#clip0_719_6972)">
<path d="M16.0244 32C24.8744 32 32.0487 24.8365 32.0487 16C32.0487 7.16344 24.8744 0 16.0244 0C7.17436 0 0 7.16344 0 16C0 24.8365 7.17436 32 16.0244 32Z" fill="#E0E0E0"/>
<path d="M16.0244 31.5137C24.7399 31.5137 31.8052 24.4591 31.8052 15.7568C31.8052 7.05457 24.7399 0 16.0244 0C7.30886 0 0.24353 7.05457 0.24353 15.7568C0.24353 24.4591 7.30886 31.5137 16.0244 31.5137Z" fill="white"/>
<mask id="mask0_719_6972" style="mask-type:luminance" maskUnits="userSpaceOnUse" x="5" y="5" width="22" height="22">
<path d="M26.2526 13.9088H16.2679V18.0426H22.0152C21.4794 20.6687 19.2389 22.1763 16.2679 22.1763C12.761 22.1763 9.93605 19.3556 9.93605 15.8541C9.93605 12.3526 12.761 9.53193 16.2679 9.53193C17.7778 9.53193 19.1415 10.0669 20.2131 10.9423L23.3303 7.8298C21.4307 6.17631 18.9954 5.15503 16.2679 5.15503C10.3257 5.15503 5.55249 9.92099 5.55249 15.8541C5.55249 21.7872 10.3257 26.5532 16.2679 26.5532C21.6256 26.5532 26.4962 22.6626 26.4962 15.8541C26.4962 15.2219 26.3988 14.541 26.2526 13.9088Z" fill="white"/>
</mask>
<g mask="url(#mask0_719_6972)">
<path d="M4.57837 22.1764V9.53198L12.8584 15.8542L4.57837 22.1764Z" fill="#FBBC05"/>
</g>
<mask id="mask1_719_6972" style="mask-type:luminance" maskUnits="userSpaceOnUse" x="5" y="5" width="22" height="22">
<path d="M26.2526 13.9088H16.2679V18.0426H22.0152C21.4794 20.6687 19.2389 22.1763 16.2679 22.1763C12.761 22.1763 9.93605 19.3556 9.93605 15.8541C9.93605 12.3526 12.761 9.53193 16.2679 9.53193C17.7778 9.53193 19.1415 10.0669 20.2131 10.9423L23.3303 7.8298C21.4307 6.17631 18.9954 5.15503 16.2679 5.15503C10.3257 5.15503 5.55249 9.92099 5.55249 15.8541C5.55249 21.7872 10.3257 26.5532 16.2679 26.5532C21.6256 26.5532 26.4962 22.6626 26.4962 15.8541C26.4962 15.2219 26.3988 14.541 26.2526 13.9088Z" fill="white"/>
</mask>
<g mask="url(#mask1_719_6972)">
<path d="M4.57837 9.53192L12.8584 15.8541L16.2679 12.8876L27.9574 10.9909V4.18237H4.57837V9.53192Z" fill="#EA4335"/>
</g>
<mask id="mask2_719_6972" style="mask-type:luminance" maskUnits="userSpaceOnUse" x="5" y="5" width="22" height="22">
<path d="M26.2526 13.9088H16.2679V18.0426H22.0152C21.4794 20.6687 19.2389 22.1763 16.2679 22.1763C12.761 22.1763 9.93605 19.3556 9.93605 15.8541C9.93605 12.3526 12.761 9.53193 16.2679 9.53193C17.7778 9.53193 19.1415 10.0669 20.2131 10.9423L23.3303 7.8298C21.4307 6.17631 18.9954 5.15503 16.2679 5.15503C10.3257 5.15503 5.55249 9.92099 5.55249 15.8541C5.55249 21.7872 10.3257 26.5532 16.2679 26.5532C21.6256 26.5532 26.4962 22.6626 26.4962 15.8541C26.4962 15.2219 26.3988 14.541 26.2526 13.9088Z" fill="white"/>
</mask>
<g mask="url(#mask2_719_6972)">
<path d="M4.57837 22.1763L19.1902 10.9909L23.038 11.4772L27.9574 4.18237V27.5258H4.57837V22.1763Z" fill="#34A853"/>
</g>
<mask id="mask3_719_6972" style="mask-type:luminance" maskUnits="userSpaceOnUse" x="5" y="5" width="22" height="22">
<path d="M26.2526 13.9088H16.2679V18.0426H22.0152C21.4794 20.6687 19.2389 22.1763 16.2679 22.1763C12.761 22.1763 9.93605 19.3556 9.93605 15.8541C9.93605 12.3526 12.761 9.53193 16.2679 9.53193C17.7778 9.53193 19.1415 10.0669 20.2131 10.9423L23.3303 7.8298C21.4307 6.17631 18.9954 5.15503 16.2679 5.15503C10.3257 5.15503 5.55249 9.92099 5.55249 15.8541C5.55249 21.7872 10.3257 26.5532 16.2679 26.5532C21.6256 26.5532 26.4962 22.6626 26.4962 15.8541C26.4962 15.2219 26.3988 14.541 26.2526 13.9088Z" fill="white"/>
</mask>
<g mask="url(#mask3_719_6972)">
<path d="M27.9573 27.5259L12.8584 15.8542L10.9102 14.3952L27.9573 9.53198V27.5259Z" fill="#4285F4"/>
</g>
</g>
<defs>
<clipPath id="clip0_719_6972">
<rect width="32" height="32" fill="white"/>
</clipPath>
</defs>
</svg>
