<svg width="19" height="8" viewBox="0 0 19 8" fill="none" xmlns="http://www.w3.org/2000/svg">
<path d="M0.625 8V0H2.125V3.4H6.625V0H8.125V8H6.625V4.6H2.125V8H0.625ZM11.125 8V4.6C11.125 4.27 11.2719 3.9875 11.5656 3.7525C11.8594 3.5175 12.2125 3.4 12.625 3.4H17.125V1.2H11.125V0H17.125C17.5417 0 17.8958 0.1175 18.1875 0.3525C18.4792 0.5875 18.625 0.87 18.625 1.2V3.4C18.625 3.73 18.4781 4.0125 18.1844 4.2475C17.8906 4.4825 17.5375 4.6 17.125 4.6H12.625V6.8H18.625V8H11.125Z" fill="#777D96"/>
</svg>
