<svg width="14" height="14" viewBox="0 0 14 14" fill="none" xmlns="http://www.w3.org/2000/svg">
<path d="M6.52193 1.30229C6.67559 0.990999 6.75242 0.835353 6.85672 0.785624C6.94746 0.742357 7.05289 0.742357 7.14363 0.785624C7.24793 0.835353 7.32476 0.990999 7.47842 1.30229L8.9362 4.2556C8.98157 4.3475 9.00425 4.39345 9.0374 4.42913C9.06674 4.46072 9.10194 4.48631 9.14104 4.5045C9.1852 4.52503 9.2359 4.53244 9.33731 4.54726L12.5982 5.02389C12.9415 5.07408 13.1132 5.09917 13.1927 5.18304C13.2618 5.25601 13.2943 5.35628 13.2812 5.45593C13.266 5.57047 13.1417 5.69153 12.8931 5.93367L10.5345 8.23103C10.4609 8.30264 10.4242 8.33845 10.4004 8.38106C10.3794 8.41878 10.366 8.46022 10.3608 8.50309C10.3549 8.5515 10.3636 8.60208 10.3809 8.70324L10.9375 11.9482C10.9962 12.2904 11.0255 12.4615 10.9704 12.5631C10.9224 12.6514 10.8371 12.7134 10.7382 12.7317C10.6246 12.7528 10.4709 12.672 10.1636 12.5104L7.24841 10.9773C7.15758 10.9295 7.11217 10.9057 7.06432 10.8963C7.02196 10.888 6.97839 10.888 6.93602 10.8963C6.88818 10.9057 6.84276 10.9295 6.75193 10.9773L3.83678 12.5104C3.52944 12.672 3.37577 12.7528 3.26214 12.7317C3.16328 12.7134 3.07798 12.6514 3.02999 12.5631C2.97483 12.4615 3.00418 12.2904 3.06288 11.9482L3.61942 8.70324C3.63677 8.60208 3.64545 8.5515 3.63958 8.50309C3.63438 8.46022 3.6209 8.41878 3.5999 8.38106C3.57618 8.33845 3.53941 8.30264 3.46589 8.23103L1.1072 5.93367C0.858605 5.69153 0.734306 5.57047 0.71918 5.45593C0.70602 5.35628 0.738532 5.25601 0.807663 5.18304C0.88712 5.09917 1.05881 5.07408 1.40219 5.02389L4.66304 4.54726C4.76445 4.53244 4.81515 4.52503 4.85931 4.5045C4.89841 4.48631 4.9336 4.46072 4.96295 4.42913C4.9961 4.39345 5.01878 4.3475 5.06415 4.2556L6.52193 1.30229Z" stroke="#777D96" stroke-width="1.33" stroke-linecap="round" stroke-linejoin="round"/>
</svg>
