<svg width="32" height="32" viewBox="0 0 32 32" fill="none" xmlns="http://www.w3.org/2000/svg">
<g clip-path="url(#clip0_719_3749)">
<path d="M21.3159 16.2442C18.3818 14.6762 15.5725 13.2347 12.7008 11.7297V20.7331C15.7227 19.0903 18.9079 17.5859 21.3283 16.2442H21.3159Z" fill="white"/>
<path d="M21.3159 16.2442C18.3818 14.6762 12.7008 11.7297 12.7008 11.7297L20.2751 16.8206C20.2751 16.8206 18.8954 17.5859 21.3159 16.2442Z" fill="#E8E0E0"/>
<path d="M13.253 27.7808C7.15879 27.6686 5.07731 27.5676 3.7979 27.304C2.9323 27.1289 2.18009 26.74 1.62855 26.176C1.20228 25.7492 0.863285 25.0979 0.600279 24.1943C0.374676 23.4415 0.28681 22.8151 0.161541 21.2852C-0.0302218 17.8323 -0.0759361 15.0093 0.161541 11.855C0.357459 10.1131 0.45245 8.04527 1.75382 6.83889C2.36829 6.27429 3.0831 5.91095 3.88577 5.76074C5.13965 5.52267 10.4817 5.33447 16.0119 5.33447C21.5297 5.33447 26.8836 5.52267 28.1387 5.76074C29.1414 5.94894 30.0818 6.51295 30.634 7.24022C31.8214 9.10798 31.8421 11.4305 31.9627 13.2472C32.0125 14.1128 32.0125 19.028 31.9627 19.8936C31.7751 22.7647 31.6243 23.7805 31.198 24.8337C30.9344 25.4986 30.7094 25.8495 30.3199 26.2384C29.7091 26.8368 28.9304 27.2348 28.0876 27.3794C22.8139 27.776 18.3356 27.8621 13.253 27.7808ZM21.329 16.2442C18.395 14.6762 15.5857 13.2223 12.714 11.7173V20.7212C15.7359 19.0784 18.9216 17.5734 21.3415 16.2317L21.329 16.2442Z" fill="#CD201F"/>
</g>
<defs>
<clipPath id="clip0_719_3749">
<rect width="32" height="22.4768" fill="white" transform="translate(0 5.33325)"/>
</clipPath>
</defs>
</svg>
